<?xml version="1.0" encoding="utf-8"?>
<!-- Generator: Adobe Illustrator 16.0.0, SVG Export Plug-In . SVG Version: 6.00 Build 0)  -->
<!DOCTYPE svg PUBLIC "-//W3C//DTD SVG 1.1//EN" "http://www.w3.org/Graphics/SVG/1.1/DTD/svg11.dtd">
<svg version="1.1" id="Layer_2" xmlns="http://www.w3.org/2000/svg" xmlns:xlink="http://www.w3.org/1999/xlink" x="0px" y="0px"
	 width="587.385px" height="584.824px" viewBox="0 0 587.385 584.824" enable-background="new 0 0 587.385 584.824"
	 xml:space="preserve">
<circle fill="#D93F3F" cx="292.596" cy="292.596" r="292.596"/>
<path fill="#FFFFFF" d="M481.113,228.3L305.849,96.948c-3.815-3.055-10.312-3.055-14.512,0L116.46,228.3
	c-3.815,3.056-7.255,9.164-7.255,14.511V452.82c0,4.965,3.816,8.781,8.78,8.781h361.216c4.964,0,8.782-3.816,8.782-8.781V242.81
	C487.985,237.464,484.93,230.972,481.113,228.3z M124.479,428.382V264.574c0-4.582,3.438-6.109,7.255-3.818l119.896,73.693
	c4.2,2.672,4.2,6.871,0.384,9.545l-120.276,87.062C127.915,434.109,124.479,432.579,124.479,428.382z M448.273,446.71H149.298
	c-4.964,0-5.729-2.291-1.907-4.968L291.722,334.83c3.816-2.67,9.928-2.67,14.128,0l144.333,106.913
	C454.003,444.419,453.239,446.71,448.273,446.71z M470.422,428.382c0,4.582-3.058,6.104-6.873,3.055l-120.659-87.059
	c-3.816-2.676-3.816-7.258,0.382-9.549l119.516-73.69c4.199-2.674,7.258-0.765,7.258,3.817v163.426H470.422L470.422,428.382z"/>
<g enable-background="new    ">
	<path fill="#CC0000" d="M179.463,241.281l25.582,11.84c1.146,0.382,1.909,1.146,2.291,1.524s0.767,1.146,0.767,1.526
		c0,0.765-0.385,1.146-0.767,1.525c-0.382,0.383-0.766,0.766-1.524,0.766c-0.383,0-0.767,0-1.146,0
		c-0.384,0-0.766-0.382-1.525-0.766l-27.873-12.98h-0.384c-2.291-1.146-3.056-1.908-3.056-3.055c0-1.147,1.146-2.291,3.056-3.058
		c0,0,0.384,0,0.384-0.382l27.873-12.979c0.765-0.385,1.146-0.385,1.525-0.767c0.382,0,0.766,0,1.146,0c0.765,0,1.146,0,1.524,0.767
		c0.382,0.382,0.767,0.764,0.767,1.524c0,0.765-0.385,1.146-0.767,1.526c-0.382,0.382-1.146,0.765-2.291,1.525L179.463,241.281z"/>
	<path fill="#CC0000" d="M225.282,258.846h2.29c1.527,0,2.291,0,2.675,0.382c0.382,0.382,0.766,1.146,0.766,1.909
		s-0.384,1.526-0.766,1.908c-0.384,0.383-1.525,0.383-3.057,0.383h-7.64h-1.524c-0.765,0-1.525-0.383-1.908-0.765
		c-0.383-0.385-0.765-1.146-0.765-1.909c0-0.764,0.382-1.526,0.765-1.908c0.383-0.383,1.526-0.383,2.674-0.383h0.766v-31.312h-0.384
		c-1.524,0-2.291,0-2.673-0.382c-0.383-0.382-0.766-1.146-0.766-1.909c0-0.763,0.383-1.524,0.766-1.906
		c0.382-0.385,1.146-0.767,1.908-0.767h1.526h7.255c1.909,0,3.057,0,3.438,0.382c0.383,0.385,0.767,1.146,0.767,1.909
		c0,0.765-0.384,1.526-0.767,1.909c-0.766,0.382-1.907,0.382-3.438,0.382h-1.908v12.219h16.802V226.77h-2.291
		c-1.146,0-2.291,0-2.673-0.765c-0.384-0.382-0.766-1.146-0.766-1.908c0-0.764,0.382-1.527,0.766-1.909
		c0.382-0.382,1.907-0.382,3.816-0.382h6.873h1.524c0.767,0,1.525,0.382,1.909,0.764c0.382,0.385,0.764,1.146,0.764,1.909
		c0,0.765-0.382,1.526-0.764,1.909c-0.384,0.382-1.527,0.382-2.675,0.382h-0.764v31.312h0.382c1.524,0,2.291,0,2.673,0.382
		c0.384,0.383,0.766,1.146,0.766,1.909c0,0.763-0.382,1.524-0.766,1.906c-0.382,0.385-1.525,0.385-3.438,0.385h-7.255
		c-1.909,0-3.057,0-3.438-0.385c-0.382-0.382-0.767-1.146-0.767-1.906c0-0.766,0.385-1.526,0.767-1.909
		c0.766-0.382,1.909-0.382,3.438-0.382h1.525V243.57h-16.419v15.274L225.282,258.846L225.282,258.846z"/>
	<path fill="#CC0000" d="M263.466,236.318c0,1.909-0.382,2.676-0.765,3.438c-0.383,0.383-1.146,0.765-1.908,0.765
		c-0.765,0-1.525-0.382-1.909-0.765c-0.382-0.382-0.764-1.146-0.764-1.908c0-0.764,0-1.146,0-1.527l0.382-11.837
		c0-0.764,0.382-1.524,0.766-1.907c0.383-0.384,1.146-0.384,1.907-0.384h30.165c0.766,0,1.527,0,1.909,0.384
		c0.382,0.383,0.766,1.146,0.766,1.907l0.382,11.837c0,0.385,0,0.767,0,1.146c0,0.382,0,0.383,0,0.383
		c0,0.764-0.382,1.526-0.766,1.908c-0.382,0.383-1.146,0.765-1.907,0.765c-0.765,0-1.525-0.382-1.909-0.765
		c-0.382-0.382-0.382-1.526-0.766-3.438l-0.382-8.779h-10.312v31.312h5.349h1.146c1.146,0,1.525,0,1.907,0.382
		c0.384,0.382,0.766,1.146,0.766,1.909s-0.382,1.526-0.766,1.908c-0.382,0.383-1.146,0.765-1.907,0.765h-19.854
		c-0.765,0-1.524-0.382-1.908-0.765c-0.382-0.382-0.766-1.146-0.766-1.908c0-0.764,0.383-1.527,0.766-1.909
		c0.384-0.382,1.146-0.382,2.291-0.382h1.525h5.348V227.54h-9.93L263.466,236.318z"/>
	<path fill="#CC0000" d="M319.596,246.628l7.255-21.768c0.382-0.764,0.767-1.524,1.146-1.906c0.384-0.385,1.524-0.385,2.291-0.385
		h5.729c0.766,0,1.146,0.385,1.527,0.767c0.381,0.383,0.382,1.146,0.382,1.909c0,0.763-0.382,1.524-0.766,1.906
		c-0.383,0.385-1.146,0.385-2.674,0.385h-0.384l1.527,31.689h0.764c1.527,0,2.675,0,3.058,0.382
		c0.384,0.385,0.766,0.767,0.766,1.909c0,0.767-0.382,1.526-0.766,1.909c-0.383,0.382-1.146,0.764-1.907,0.764h-9.548
		c-1.146,0-2.291,0-2.673-0.382c-0.385-0.382-0.767-1.146-0.767-1.909c0-0.763,0.382-1.524,0.767-1.906
		c0.382-0.385,1.524-0.385,3.438-0.385h1.525l-0.767-29.78l-6.872,20.234c-0.383,1.146-0.765,1.526-1.146,1.909
		c-0.383,0.382-1.146,0.382-2.291,0.382c-1.146,0-1.527-0.382-2.291-0.382c-0.383-0.383-0.766-1.146-1.146-1.909l-6.873-20.234
		l-0.766,29.78h3.057c1.525,0,2.291,0,2.674,0.385c0.384,0.382,0.766,1.146,0.766,1.906c0,0.766-0.382,1.527-0.766,1.909
		c-0.383,0.382-1.525,0.382-2.674,0.382h-9.547c-0.767,0-1.525-0.382-1.907-0.764c-0.383-0.383-0.767-1.146-0.767-1.909
		c0-0.764,0.383-1.524,0.767-1.909c0.382-0.382,1.524-0.382,3.055-0.382h0.766l1.146-31.689h-0.382c-1.146,0-2.291,0-2.674-0.385
		c-0.384-0.382-0.766-0.764-0.766-1.906c0-0.767,0.382-1.146,0.766-1.909c0.383-0.382,0.765-0.767,1.523-0.767h5.729
		c1.146,0,1.907,0,2.29,0.385c0.383,0.382,1.146,1.146,1.146,1.906L319.596,246.628z"/>
	<path fill="#CC0000" d="M375.725,249.682c0-1.909,0-2.674,0.382-3.438c0.385-0.385,1.146-0.767,1.909-0.767
		c0.765,0,1.527,0.382,1.909,0.767c0.382,0.382,0.764,1.146,0.764,1.906v1.527v11.837c0,0.765-0.382,1.526-0.764,1.909
		c-0.382,0.382-1.146,0.764-1.909,0.764h-30.929h-1.527c-0.764,0-1.524-0.382-1.909-0.764c-0.382-0.383-0.764-1.146-0.764-1.909
		c0-0.764,0.382-1.526,0.764-1.909c0.385-0.382,1.527-0.382,3.438-0.382h4.198v-31.312h-4.198c-1.527,0-2.675,0-3.438-0.384
		c-0.382-0.383-0.764-1.146-0.764-1.907c0-0.765,0.382-1.526,0.764-1.909c0.385-0.382,1.146-0.765,1.909-0.765h1.527h16.035h1.524
		c0.767,0,1.527,0.383,1.909,0.765c0.382,0.383,0.766,1.146,0.766,1.909c0,0.763-0.384,1.524-0.766,1.907
		c-0.382,0.384-1.525,0.384-3.438,0.384h-5.729v31.312h18.71v-9.546L375.725,249.682L375.725,249.682z"/>
	<path fill="#CC0000" d="M414.674,241.281l-25.582-11.837c-1.146-0.382-1.909-0.764-2.291-1.524
		c-0.382-0.766-0.766-1.146-0.766-1.526c0-0.765,0.382-1.146,0.766-1.526c0.382-0.382,0.764-0.765,1.525-0.765
		c0.382,0,0.766,0,1.146,0s1.146,0.382,1.525,0.765l27.873,12.981c0,0,0.385,0,0.385,0.382c1.906,0.767,3.055,1.909,3.055,3.058
		c0,1.146-1.146,2.291-3.055,3.055c-0.385,0-0.385,0-0.385,0.383l-27.873,12.981l0,0c-1.146,0.382-1.907,0.764-2.673,0.764
		c-0.767,0-1.146-0.382-1.525-0.764c-0.381-0.385-0.766-1.146-0.766-1.526c0-0.765,0.382-1.146,0.766-1.527
		c0.382-0.381,1.146-0.764,2.291-1.524L414.674,241.281z"/>
</g>
</svg>
